<?xml version="1.0" encoding="UTF-8"?>
<svg xmlns="http://www.w3.org/2000/svg" xmlns:xlink="http://www.w3.org/1999/xlink" width="100px" height="100px" viewBox="0 0 100 100" version="1.1">
<g id="surface1">
<path style=" stroke:none;fill-rule:nonzero;fill:rgb(11.764706%,65.098039%,77.647059%);fill-opacity:1;" d="M 81.039062 79.761719 C 81.039062 79.769531 81.039062 79.777344 81.039062 79.785156 C 72.839844 87.21875 61.960938 91.746094 50.023438 91.746094 C 38.085938 91.746094 27.207031 87.21875 19.011719 79.785156 C 19.011719 79.777344 19.011719 79.769531 19.011719 79.761719 C 19.011719 67.398438 26.246094 56.726562 36.710938 51.746094 C 40.640625 55.667969 45.246094 57.78125 50.023438 57.78125 C 54.804688 57.78125 59.40625 55.667969 63.34375 51.746094 C 73.808594 56.726562 81.039062 67.398438 81.039062 79.761719 Z M 81.039062 79.761719 "/>
<path style=" stroke:none;fill-rule:nonzero;fill:rgb(98.823529%,81.568627%,62.352941%);fill-opacity:1;" d="M 50.023438 12.695312 C 59.5 12.695312 67.179688 20.375 67.179688 29.847656 C 67.179688 39.324219 59.5 52.28125 50.023438 52.28125 C 40.550781 52.28125 32.871094 39.324219 32.871094 29.847656 C 32.871094 20.375 40.550781 12.695312 50.023438 12.695312 Z M 50.023438 12.695312 "/>
<path style=" stroke:none;fill-rule:nonzero;fill:rgb(93.72549%,50.196078%,43.529412%);fill-opacity:1;" d="M 35.566406 46.25 C 36.09375 47 36.636719 47.703125 37.199219 48.363281 L 35.488281 49.175781 C 29.789062 51.886719 24.96875 56.128906 21.542969 61.441406 C 18.757812 65.765625 17.011719 70.640625 16.40625 75.71875 C 10.214844 74.03125 4.617188 70.902344 0 66.714844 L 0 66.691406 C 0 55.917969 6.304688 46.617188 15.421875 42.277344 C 18.851562 45.695312 22.863281 47.539062 27.023438 47.539062 C 29.75 47.539062 32.414062 46.75 34.890625 45.242188 C 35.109375 45.582031 35.335938 45.921875 35.566406 46.25 Z M 35.566406 46.25 "/>
<path style=" stroke:none;fill-rule:nonzero;fill:rgb(93.72549%,77.254902%,61.176471%);fill-opacity:1;" d="M 30.027344 29.847656 C 30.027344 33.410156 30.953125 37.328125 32.601562 41.011719 C 30.878906 42.101562 28.996094 42.746094 27.023438 42.746094 C 18.769531 42.746094 12.078125 31.457031 12.078125 23.199219 C 12.078125 14.941406 18.769531 8.25 27.023438 8.25 C 31.601562 8.25 35.703125 10.3125 38.445312 13.554688 C 33.355469 17.183594 30.027344 23.136719 30.027344 29.847656 Z M 30.027344 29.847656 "/>
<path style=" stroke:none;fill-rule:nonzero;fill:rgb(93.72549%,50.196078%,43.529412%);fill-opacity:1;" d="M 64.433594 46.25 C 63.90625 47 63.363281 47.703125 62.800781 48.363281 L 64.511719 49.175781 C 70.210938 51.886719 75.03125 56.128906 78.457031 61.441406 C 81.242188 65.765625 82.988281 70.640625 83.59375 75.71875 C 89.785156 74.03125 95.382812 70.902344 100 66.714844 L 100 66.691406 C 100 55.917969 93.695312 46.617188 84.578125 42.277344 C 81.148438 45.695312 77.136719 47.539062 72.976562 47.539062 C 70.25 47.539062 67.585938 46.75 65.109375 45.242188 C 64.890625 45.582031 64.664062 45.921875 64.433594 46.25 Z M 64.433594 46.25 "/>
<path style=" stroke:none;fill-rule:nonzero;fill:rgb(93.72549%,77.254902%,61.176471%);fill-opacity:1;" d="M 69.972656 29.847656 C 69.972656 33.410156 69.046875 37.328125 67.398438 41.011719 C 69.121094 42.101562 71.003906 42.746094 72.976562 42.746094 C 81.230469 42.746094 87.921875 31.457031 87.921875 23.199219 C 87.921875 14.941406 81.230469 8.25 72.976562 8.25 C 68.398438 8.25 64.296875 10.3125 61.554688 13.554688 C 66.644531 17.183594 69.972656 23.136719 69.972656 29.847656 Z M 69.972656 29.847656 "/>
</g>
</svg>
