<?xml version="1.0" encoding="UTF-8"?>
<svg xmlns="http://www.w3.org/2000/svg" xmlns:xlink="http://www.w3.org/1999/xlink" width="100px" height="100px" viewBox="0 0 100 100" version="1.1">
<g id="surface1">
<path style=" stroke:none;fill-rule:nonzero;fill:rgb(92.941176%,78.823529%,17.254902%);fill-opacity:1;" d="M 100 50 C 100 77.613281 77.613281 100 50 100 C 22.386719 100 0 77.613281 0 50 C 0 22.386719 22.386719 0 50 0 C 77.613281 0 100 22.386719 100 50 Z M 100 50 "/>
<path style=" stroke:none;fill-rule:nonzero;fill:rgb(91.372549%,76.078431%,61.176471%);fill-opacity:1;" d="M 75.953125 49.996094 C 75.953125 64.335938 64.332031 75.953125 49.996094 75.953125 C 35.660156 75.953125 24.042969 64.332031 24.042969 49.996094 C 24.042969 35.660156 35.660156 24.042969 49.996094 24.042969 C 64.332031 24.042969 75.953125 35.660156 75.953125 49.996094 Z M 75.953125 49.996094 "/>
<path style=" stroke:none;fill-rule:nonzero;fill:rgb(64.313725%,39.215686%,20.392157%);fill-opacity:1;" d="M 75.953125 49.996094 L 58.253906 34.070312 C 58.253906 34.070312 54.488281 40.308594 44.433594 44.855469 C 34.746094 49.238281 24.042969 49.996094 24.042969 49.996094 C 24.042969 35.660156 35.660156 24.042969 49.996094 24.042969 C 64.332031 24.042969 75.953125 35.660156 75.953125 49.996094 Z M 75.953125 49.996094 "/>
<path style=" stroke:none;fill-rule:nonzero;fill:rgb(20.392157%,20.392157%,20%);fill-opacity:1;" d="M 45.769531 53.851562 C 45.769531 51.777344 44.179688 50.097656 42.214844 50.097656 C 40.253906 50.097656 38.660156 51.777344 38.660156 53.851562 C 38.660156 55.925781 40.253906 57.609375 42.214844 57.609375 C 44.179688 57.609375 45.769531 55.925781 45.769531 53.851562 Z M 45.769531 53.851562 "/>
<path style=" stroke:none;fill-rule:nonzero;fill:rgb(20.392157%,20.392157%,20%);fill-opacity:1;" d="M 61.183594 53.851562 C 61.183594 51.777344 59.589844 50.097656 57.628906 50.097656 C 55.664062 50.097656 54.070312 51.777344 54.070312 53.851562 C 54.070312 55.925781 55.664062 57.609375 57.628906 57.609375 C 59.589844 57.609375 61.183594 55.925781 61.183594 53.851562 Z M 61.183594 53.851562 "/>
<path style=" stroke:none;fill-rule:nonzero;fill:rgb(100%,100%,100%);fill-opacity:1;" d="M 60.160156 52.429688 C 60.160156 53.257812 59.527344 53.933594 58.738281 53.933594 C 57.957031 53.933594 57.320312 53.257812 57.320312 52.429688 C 57.320312 51.597656 57.957031 50.925781 58.738281 50.925781 C 59.527344 50.925781 60.160156 51.597656 60.160156 52.429688 Z M 60.160156 52.429688 "/>
<path style=" stroke:none;fill-rule:nonzero;fill:rgb(100%,100%,100%);fill-opacity:1;" d="M 44.714844 52.429688 C 44.714844 53.257812 44.078125 53.933594 43.289062 53.933594 C 42.503906 53.933594 41.871094 53.257812 41.871094 52.429688 C 41.871094 51.597656 42.503906 50.925781 43.289062 50.925781 C 44.078125 50.925781 44.714844 51.597656 44.714844 52.429688 Z M 44.714844 52.429688 "/>
<path style=" stroke:none;fill-rule:nonzero;fill:rgb(20.784314%,44.313725%,50.196078%);fill-opacity:1;" d="M 29.089844 51.066406 C 29.089844 56.636719 29.144531 61.152344 25.257812 61.152344 C 21.371094 61.152344 18.21875 56.636719 18.21875 51.066406 C 18.21875 45.492188 21.371094 40.972656 25.257812 40.972656 C 29.144531 40.972656 29.089844 45.492188 29.089844 51.066406 Z M 29.089844 51.066406 "/>
<path style=" stroke:none;fill-rule:nonzero;fill:rgb(20.784314%,44.313725%,50.196078%);fill-opacity:1;" d="M 81.722656 51.066406 C 81.722656 56.636719 78.574219 61.152344 74.683594 61.152344 C 70.800781 61.152344 70.855469 56.636719 70.855469 51.066406 C 70.855469 45.492188 70.800781 40.972656 74.683594 40.972656 C 78.574219 40.972656 81.722656 45.492188 81.722656 51.066406 Z M 81.722656 51.066406 "/>
<path style=" stroke:none;fill-rule:nonzero;fill:rgb(20.784314%,44.313725%,50.196078%);fill-opacity:1;" d="M 50.167969 22.136719 C 65.929688 22.136719 78.925781 37.03125 80.847656 51.816406 C 81.007812 50.578125 81.101562 49.3125 81.101562 48.027344 C 81.101562 31.449219 67.25 14.550781 50.167969 14.550781 C 33.085938 14.550781 19.238281 31.449219 19.238281 48.027344 C 19.238281 49.3125 19.332031 50.574219 19.488281 51.816406 C 21.414062 37.03125 34.410156 22.136719 50.167969 22.136719 Z M 50.167969 22.136719 "/>
<path style=" stroke:none;fill-rule:nonzero;fill:rgb(14.117647%,38.431373%,42.352941%);fill-opacity:1;" d="M 61.511719 78.835938 C 62.128906 80.851562 60.042969 82.765625 56.984375 83.703125 C 53.921875 84.644531 51.054688 84.257812 50.433594 82.242188 C 49.8125 80.226562 51.675781 77.347656 54.738281 76.410156 C 57.796875 75.464844 60.890625 76.824219 61.511719 78.835938 Z M 61.511719 78.835938 "/>
<path style=" stroke:none;fill-rule:nonzero;fill:rgb(20.784314%,44.313725%,50.196078%);fill-opacity:1;" d="M 83.601562 51.378906 L 83.425781 51.378906 L 83.425781 51.28125 C 83.425781 50.214844 82.5625 49.355469 81.496094 49.355469 C 80.433594 49.355469 79.570312 50.214844 79.570312 51.28125 L 79.570312 53.902344 C 79.570312 54.589844 79.929688 55.183594 80.46875 55.527344 C 78.433594 67.445312 70.933594 75.238281 61.660156 79.226562 C 61.652344 79.214844 61.660156 79.199219 61.652344 79.183594 C 61.175781 77.625 58.308594 77.125 55.246094 78.066406 C 52.1875 79.007812 50.097656 81.03125 50.578125 82.589844 C 51.058594 84.144531 53.925781 84.644531 56.984375 83.703125 C 58.449219 83.253906 59.675781 82.554688 60.519531 81.777344 C 74.199219 79.109375 83.601562 66.515625 83.601562 51.378906 Z M 83.601562 51.378906 "/>
</g>
</svg>
