<?xml version="1.0" encoding="UTF-8"?>
<svg xmlns="http://www.w3.org/2000/svg" xmlns:xlink="http://www.w3.org/1999/xlink" width="120px" height="120px" viewBox="0 0 120 120" version="1.1">
<g id="surface1">
<path style=" stroke:none;fill-rule:nonzero;fill:rgb(95.686275%,69.803922%,69.019608%);fill-opacity:1;" d="M 96.074219 56.5625 C 96.074219 76.988281 79.515625 93.546875 59.089844 93.546875 C 38.660156 93.546875 22.101562 76.988281 22.101562 56.5625 C 22.101562 36.136719 38.660156 19.578125 59.089844 19.578125 C 79.515625 19.578125 96.074219 36.136719 96.074219 56.5625 Z M 96.074219 56.5625 "/>
<path style=" stroke:none;fill-rule:nonzero;fill:rgb(70.196078%,25.098039%,29.019608%);fill-opacity:1;" d="M 62.054688 53.777344 L 62.054688 43.246094 C 66.257812 43.980469 66.890625 46.3125 66.984375 47.683594 C 67.007812 48.035156 67.300781 48.304688 67.652344 48.304688 L 72.242188 48.304688 C 72.628906 48.304688 72.933594 47.980469 72.914062 47.59375 C 72.613281 41.816406 68.65625 38.101562 62.054688 37.265625 L 62.054688 33.722656 C 62.054688 33.355469 61.753906 33.054688 61.386719 33.054688 L 56.792969 33.054688 C 56.425781 33.054688 56.125 33.355469 56.125 33.722656 L 56.125 37.265625 C 49.257812 38.132812 45.246094 42.121094 45.246094 48.304688 C 45.246094 54.488281 49.257812 58.476562 56.125 59.347656 L 56.125 69.878906 C 51.921875 69.140625 51.289062 66.8125 51.195312 65.441406 C 51.167969 65.089844 50.878906 64.816406 50.527344 64.816406 L 45.933594 64.816406 C 45.550781 64.816406 45.246094 65.144531 45.265625 65.53125 C 45.5625 71.304688 49.523438 75.023438 56.125 75.859375 L 56.125 79.402344 C 56.125 79.769531 56.425781 80.070312 56.792969 80.070312 L 61.386719 80.070312 C 61.753906 80.070312 62.054688 79.769531 62.054688 79.402344 L 62.054688 75.859375 C 68.921875 74.988281 72.929688 71 72.929688 64.816406 C 72.929688 58.632812 68.921875 54.644531 62.054688 53.777344 Z M 56.125 53.367188 C 51.175781 52.5 51.175781 49.425781 51.175781 48.304688 C 51.175781 47.1875 51.175781 44.113281 56.125 43.246094 Z M 62.054688 69.878906 L 62.054688 59.757812 C 67 60.625 67 63.699219 67 64.816406 C 67 65.9375 67 69.011719 62.054688 69.878906 Z M 62.054688 69.878906 "/>
<path style=" stroke:none;fill-rule:nonzero;fill:rgb(70.196078%,25.098039%,29.019608%);fill-opacity:1;" d="M 117.441406 79.738281 C 117.441406 78.808594 117.066406 77.914062 116.40625 77.253906 C 115.746094 76.597656 114.839844 76.234375 113.917969 76.230469 L 100.085938 76.261719 C 98.144531 76.265625 96.570312 77.84375 96.578125 79.785156 C 96.582031 81.726562 98.15625 83.296875 100.09375 83.296875 C 100.097656 83.296875 100.101562 83.296875 100.101562 83.296875 L 106.125 83.28125 L 84.144531 102.953125 L 77.863281 92.453125 C 81.414062 90.597656 84.75 88.179688 87.726562 85.199219 C 103.519531 69.410156 103.519531 43.714844 87.726562 27.921875 C 71.9375 12.132812 46.242188 12.132812 30.449219 27.921875 C 29.078125 29.296875 29.078125 31.523438 30.449219 32.898438 C 31.824219 34.273438 34.050781 34.273438 35.425781 32.898438 C 48.472656 19.847656 69.707031 19.851562 82.753906 32.898438 C 95.800781 45.945312 95.800781 67.175781 82.753906 80.226562 C 80.191406 82.789062 77.308594 84.839844 74.238281 86.394531 L 73.761719 85.601562 C 73.207031 84.671875 72.253906 84.050781 71.175781 83.914062 C 70.101562 83.785156 69.023438 84.152344 68.257812 84.921875 L 63.457031 89.71875 C 53.496094 91.019531 43.0625 87.859375 35.425781 80.226562 C 34.050781 78.851562 31.824219 78.851562 30.449219 80.226562 C 29.078125 81.597656 29.078125 83.828125 30.449219 85.203125 C 37.621094 92.371094 46.832031 96.285156 56.234375 96.945312 L 48.230469 104.945312 C 48.0625 104.878906 47.890625 104.816406 47.710938 104.773438 C 25.25 99.492188 9.5625 79.667969 9.5625 56.5625 C 9.5625 43.332031 14.714844 30.894531 24.070312 21.542969 C 33.421875 12.1875 45.859375 7.035156 59.089844 7.035156 C 86.398438 7.035156 108.613281 29.253906 108.613281 56.5625 C 108.613281 58.503906 110.191406 60.078125 112.132812 60.078125 C 114.074219 60.078125 115.652344 58.503906 115.652344 56.5625 C 115.652344 25.375 90.277344 0 59.089844 0 C 43.980469 0 29.777344 5.882812 19.09375 16.566406 C 8.410156 27.25 2.527344 41.453125 2.527344 56.5625 C 2.527344 69.386719 6.9375 81.945312 14.949219 91.929688 C 22.054688 100.789062 31.746094 107.34375 42.523438 110.652344 L 39.179688 113.996094 C 37.808594 115.367188 37.808594 117.59375 39.179688 118.96875 C 39.867188 119.65625 40.769531 120 41.667969 120 C 42.570312 120 43.46875 119.65625 44.15625 118.96875 L 66.820312 96.304688 C 68.328125 96.015625 69.820312 95.636719 71.292969 95.171875 L 80.296875 110.222656 C 80.835938 111.121094 81.75 111.734375 82.789062 111.894531 C 83.824219 112.050781 84.878906 111.738281 85.660156 111.035156 L 110.425781 88.878906 L 110.4375 93.585938 C 110.441406 95.527344 112.015625 97.09375 113.953125 97.09375 C 113.957031 97.09375 113.960938 97.09375 113.960938 97.09375 C 115.90625 97.089844 117.476562 95.511719 117.472656 93.570312 Z M 117.441406 79.738281 "/>
</g>
</svg>
